<svg width="86" height="24" viewBox="0 0 86 24" fill="none" xmlns="http://www.w3.org/2000/svg">
<path d="M12 4V20M8 9V15M20 10V14M4 10V14M16 7V17" stroke="#7FAD62" stroke-width="1.5" stroke-linecap="round" stroke-linejoin="round"/>
<path d="M53 4V20M49 9V15M61 10V14M45 10V14M57 7V17" stroke="#7FAD62" stroke-width="1.5" stroke-linecap="round" stroke-linejoin="round"/>
<path d="M74 4V20M70 9V15M82 10V14M66 10V14M78 7V17" stroke="#7FAD62" stroke-width="1.5" stroke-linecap="round" stroke-linejoin="round"/>
<path d="M32 4V20M28 9V15M40 10V14M24 10V14M36 7V17" stroke="#7FAD62" stroke-width="1.5" stroke-linecap="round" stroke-linejoin="round"/>
</svg>
