<svg width="16" height="16" viewBox="0 0 16 16" fill="none" xmlns="http://www.w3.org/2000/svg">
<path d="M11.6413 13.3334H5.10267V6.00007L9.28267 1.87207L9.57667 2.16674C9.63756 2.22763 9.68867 2.3054 9.73 2.40007C9.77133 2.49474 9.792 2.58185 9.792 2.6614V2.76674L9.11 6.00007H13.59C13.8687 6.00007 14.1176 6.10985 14.3367 6.3294C14.5567 6.54896 14.6667 6.79807 14.6667 7.07674V7.8974C14.6667 7.95829 14.6604 8.02452 14.648 8.09607C14.6356 8.16807 14.6169 8.23429 14.592 8.29474L12.772 12.6101C12.6804 12.8154 12.5264 12.9872 12.31 13.1254C12.094 13.2641 11.8711 13.3334 11.6413 13.3334ZM4.436 6.00007V13.3334H2V6.00007H4.436Z" fill="#7FAD62"/>
</svg>
