<svg width="55" height="55" viewBox="0 0 55 55" fill="none" xmlns="http://www.w3.org/2000/svg">
<g clip-path="url(#clip0_1168_1085)">
<path fill-rule="evenodd" clip-rule="evenodd" d="M27.4997 4.58301C14.8428 4.58301 4.58301 14.8428 4.58301 27.4997C4.58301 40.1565 14.8428 50.4163 27.4997 50.4163C40.1565 50.4163 50.4163 40.1565 50.4163 27.4997C50.4163 14.8428 40.1565 4.58301 27.4997 4.58301ZM19.4788 21.7705C19.4788 20.7172 19.6863 19.6742 20.0894 18.7011C20.4925 17.7279 21.0833 16.8437 21.8281 16.0989C22.5729 15.3541 23.4571 14.7633 24.4302 14.3602C25.4034 13.9571 26.4464 13.7497 27.4997 13.7497C28.553 13.7497 29.596 13.9571 30.5691 14.3602C31.5422 14.7633 32.4265 15.3541 33.1713 16.0989C33.9161 16.8437 34.5069 17.7279 34.91 18.7011C35.313 19.6742 35.5205 20.7172 35.5205 21.7705C35.5205 23.8978 34.6755 25.9379 33.1713 27.4421C31.6671 28.9463 29.6269 29.7913 27.4997 29.7913C25.3724 29.7913 23.3323 28.9463 21.8281 27.4421C20.3239 25.9379 19.4788 23.8978 19.4788 21.7705ZM41.8409 38.9213C40.1255 41.0792 37.9446 42.8217 35.4613 44.0185C32.978 45.2153 30.2564 45.8356 27.4997 45.833C24.743 45.8356 22.0214 45.2153 19.538 44.0185C17.0547 42.8217 14.8739 41.0792 13.1584 38.9213C16.8732 36.2561 21.9424 34.3747 27.4997 34.3747C33.057 34.3747 38.1261 36.2561 41.8409 38.9213Z" fill="#A2A3A1"/>
</g>
<defs>
<clipPath id="clip0_1168_1085">
<rect width="55" height="55" fill="white"/>
</clipPath>
</defs>
</svg>
